<?xml version="1.0" standalone="no"?><!DOCTYPE svg PUBLIC "-//W3C//DTD SVG 1.1//EN" "http://www.w3.org/Graphics/SVG/1.1/DTD/svg11.dtd"><svg t="1770818457906" class="icon" viewBox="0 0 1024 1024" version="1.1" xmlns="http://www.w3.org/2000/svg" p-id="3681" xmlns:xlink="http://www.w3.org/1999/xlink" width="200" height="200"><path d="M511.3 134.7c105 0 192.3 32.1 267 98.2 72.9 64.5 108.4 140 108.4 230.9 0.9 49.6-19.1 97.3-55.2 131.3-34.9 35.7-83.1 55.5-133 54.6H614c-64.8 0.8-117.1 53.4-117.4 118.3 0 41.5 17.1 67.3 31.5 81.6 3.8 3.1 6 7.8 5.9 12.7 0 9.9-2.9 14.1-5.8 17.1-4.6 4.4-10.9 6.6-17.2 6-105.3 0-192.4-35.7-266-109.5-73.6-73.7-109.4-160.7-109.4-266 0-105.3 35.7-192.4 109.4-266 73.7-73.4 160.8-109.2 266.3-109.2m0-70.9c-123.7 0-229.6 43.6-316.2 130.2-86.6 86.5-130.2 192.5-130.2 316.2 0 123.7 43.4 229.6 130.1 316.4 86.6 86.8 192.5 130 316.3 130 25.1 0.7 49.4-9 67.1-26.8 17.7-17.8 27.4-42.1 26.6-67.2 0-23.7-9.7-46.4-26.8-62.8-7.1-7.1-10.8-17.2-10.8-31.9 0.5-25.5 20.9-46.2 46.5-47h84.2c68.6 0.9 134.6-26.2 182.8-75 49.8-47.3 77.6-113.3 76.7-182 0-111.2-44.6-206.4-132.4-284.1-87.6-77.6-192.2-115.9-313.9-116z m0 0" p-id="3682"></path><path d="M202 510.2c0 24.7 13.2 47.5 34.5 59.8 21.4 12.3 47.7 12.3 69.1 0 21.4-12.3 34.5-35.1 34.5-59.8 0-24.7-13.2-47.5-34.5-59.8a69.312 69.312 0 0 0-69.1 0c-21.4 12.4-34.5 35.2-34.5 59.8z m0 0M322.3 310.3c0 24.7 13.2 47.5 34.5 59.8 21.4 12.3 47.7 12.3 69.1 0 21.4-12.3 34.5-35.1 34.5-59.8 0-24.7-13.2-47.5-34.5-59.8a69.312 69.312 0 0 0-69.1 0c-21.3 12.3-34.5 35.1-34.5 59.8z m0 0M546.7 287.4c0 24.7 13.2 47.5 34.5 59.8 21.4 12.3 47.7 12.3 69.1 0 21.4-12.3 34.5-35.1 34.5-59.8 0-24.7-13.2-47.5-34.5-59.8a69.312 69.312 0 0 0-69.1 0c-21.4 12.3-34.5 35.1-34.5 59.8z m0 0M673.3 479.8c0 24.7 13.2 47.5 34.5 59.8 21.4 12.3 47.7 12.3 69.1 0 21.4-12.3 34.5-35.1 34.5-59.8 0-24.7-13.2-47.5-34.5-59.8a69.312 69.312 0 0 0-69.1 0c-21.4 12.3-34.5 35.1-34.5 59.8z m0 0" fill="#AFAFAF" p-id="3683"></path></svg>