<svg class="icon" width="200px" height="200px" viewBox="0 0 1024 1024" version="1.1" xmlns="http://www.w3.org/2000/svg">
  <g transform="matrix(1.156927 0 0 1.156927 -231.88846 -167.594186)">
    <path d="M838.4 384.213333h125.013333v515.84c0 26.666667-20.266667 46.933333-46.933333 46.933334H416.426667c-26.666667 0-46.933333-20.266667-46.933334-46.933334v-625.066666c0-26.666667 20.266667-46.933333 46.933334-46.933334h390.826666v125.013334H838.4v31.146666z m-46.933333-15.786666v-125.013334H416.426667c-17.28 0-31.36 14.08-31.36 31.36v625.066667c0 17.28 14.08 31.36 31.36 31.36h500.053333c17.28 0 31.36-14.08 31.36-31.36V399.786667h-125.013333v-31.36H791.466667z m0 0" fill="#9FA0A6" /><path d="M814.933333 399.786667h-23.466666v-171.946667h15.573333v15.573333h15.573333v15.573334h15.573334v15.573333h15.573333v15.573333h15.573333v15.573334h15.573334v15.573333h15.573333v15.573333h15.573333v15.573334h15.573334v15.573333h15.573333v15.573333h15.573333v15.573334H791.466667v-23.466667c0 13.226667 11.093333 24.106667 23.466666 24.106667z m0 0M432 852.906667h468.906667v31.36H432v-31.36z m0-78.08h468.906667v31.36H432v-31.36z m0-78.08h468.906667v31.36H432v-31.36z m0 0" fill="#9FA0A6" /><path d="M353.92 305.92h250.026667c17.28 0 31.36 14.08 31.36 31.36v250.026667c0 17.28-14.08 31.36-31.36 31.36H353.92c-17.28 0-31.36-14.08-31.36-31.36V337.28c0.213333-17.28 14.293333-31.36 31.36-31.36z m0 0" fill="#F9D919" /><path d="M412.373333 473.173333V467.2c0-2.986667 2.346667-5.333333 5.333334-5.333333h32.213333c2.986667 0 5.333333 2.346667 5.333333 5.333333v31.573333c0 1.706667-0.853333 3.2-1.92 4.266667-4.053333 3.2-9.386667 6.186667-16.213333 8.96-7.893333 2.986667-16 4.693333-24.106667 4.693333-10.24 0-19.2-2.133333-26.88-6.4-7.68-4.266667-13.44-10.453333-17.28-18.56-3.84-8.106667-5.76-16.853333-5.76-26.24 0-10.24 2.133333-19.413333 6.4-27.306666 4.266667-7.893333 10.666667-14.08 18.986667-18.346667 6.4-3.2 14.293333-4.906667 23.68-4.906667 12.16 0 21.76 2.56 28.586667 7.68 5.333333 3.84 9.173333 8.96 11.52 15.36 1.28 2.986667-0.853333 6.4-4.053334 7.04l-9.6 1.706667c-2.346667 0.426667-4.693333-0.64-5.76-2.773333-1.493333-3.2-3.626667-5.76-6.4-7.893334-3.84-2.773333-8.533333-4.266667-14.293333-4.266666-8.746667 0-15.573333 2.773333-20.693333 8.32-5.12 5.546667-7.68 13.653333-7.68 24.533333 0 11.733333 2.56 20.48 7.893333 26.24 5.12 5.76 11.946667 8.746667 20.48 8.746667 4.266667 0 8.32-0.853333 12.586667-2.56 3.2-1.28 5.973333-2.56 8.32-4.266667 1.493333-1.066667 2.56-2.773333 2.56-4.48v-4.48c0-2.986667-2.346667-5.333333-5.333334-5.333333H418.133333c-3.2 0-5.76-2.56-5.76-5.333334zM473.173333 509.013333v-87.04c0-3.2 2.56-5.76 5.76-5.76h8.32c3.2 0 5.76 2.56 5.76 5.76v87.04c0 3.2-2.56 5.76-5.76 5.76h-8.32c-3.2-0.213333-5.76-2.773333-5.76-5.76zM512 509.653333v-88.533333c0-2.773333 2.133333-4.906667 4.906667-4.906667h57.6c2.773333 0 4.906667 2.133333 4.906666 4.906667v6.613333c0 2.773333-2.133333 4.906667-4.906666 4.906667h-37.76c-2.773333 0-4.906667 2.133333-4.906667 4.906667v13.44c0 2.773333 2.133333 4.906667 4.906667 4.906666h31.146666c2.773333 0 4.906667 2.133333 4.906667 4.906667v6.613333c0 2.773333-2.133333 4.906667-4.906667 4.906667h-31.146666c-2.773333 0-4.906667 2.133333-4.906667 4.906667v32c0 2.773333-2.133333 4.906667-4.906667 4.906666h-9.813333c-2.773333 0.426667-5.12-1.706667-5.12-4.48z" fill="#FFFFFF" />
  </g>
</svg>
